<?xml version="1.0" encoding="UTF-8"?>
<svg version="1.1" xmlns="http://www.w3.org/2000/svg" width="800" height="800">
<path d="M0 0 C1.83809235 0.00081573 1.83809235 0.00081573 3.71331787 0.00164795 C100.3094236 0.19791448 196.12988351 35.37320421 267.53125 101.1796875 C269.53351476 103.00642905 271.56641702 104.77629974 273.62109375 106.54296875 C278.45361024 110.76170722 282.97640911 115.26724787 287.5 119.8125 C288.31146484 120.62009766 289.12292969 121.42769531 289.95898438 122.25976562 C294.82638948 127.13502772 299.48335175 132.1201806 303.9375 137.375 C304.47995361 138.01074951 305.02240723 138.64649902 305.58129883 139.30151367 C314.59659286 149.93552054 322.97355238 160.93506068 330.9375 172.375 C331.38577148 173.01646973 331.83404297 173.65793945 332.29589844 174.31884766 C349.78362653 199.49137981 363.57908884 226.96490306 374.9375 255.375 C375.27620117 256.21450195 375.61490234 257.05400391 375.96386719 257.91894531 C391.77490551 297.48784477 400.86753482 341.87363056 401.17578125 384.53125 C401.1855751 385.65999542 401.19536896 386.78874084 401.20545959 387.95169067 C401.51819223 433.38646825 397.33448746 475.74165264 383.9375 519.375 C383.66325195 520.27476562 383.38900391 521.17453125 383.10644531 522.1015625 C376.8329153 542.42869918 368.37131972 561.83588085 359.06640625 580.94140625 C357.77493604 583.59573589 356.57344381 586.23541114 355.421875 588.95703125 C343.28103522 616.91291233 323.21246964 642.85416631 302.9375 665.375 C302.12539063 666.28636719 301.31328125 667.19773437 300.4765625 668.13671875 C299.03369057 669.74919141 297.58482307 671.35632712 296.12890625 672.95703125 C294.51873724 674.7336705 292.9246543 676.52492256 291.33984375 678.32421875 C290.46457031 679.31035156 289.58929687 680.29648437 288.6875 681.3125 C287.89859375 682.20839844 287.1096875 683.10429688 286.296875 684.02734375 C283.97204168 686.34062988 281.76344275 687.74905239 278.9375 689.375 C277.1840934 690.92550173 277.1840934 690.92550173 275.625 692.625 C268.752665 699.7483792 260.95030925 705.87638699 253.29296875 712.125 C249.76354195 715.01564571 246.28141812 717.938085 242.87109375 720.96875 C192.9948146 764.82568873 122.62557811 787.66049234 57.9375 797.375 C56.91011719 797.53871094 55.88273437 797.70242188 54.82421875 797.87109375 C16.66451629 803.73808739 -25.02571697 802.99782154 -63.0625 796.375 C-63.77220947 796.2514917 -64.48191895 796.1279834 -65.21313477 796.00073242 C-91.17917393 791.41882818 -116.34400899 784.57328094 -141.0625 775.375 C-142.21951416 774.94912598 -142.21951416 774.94912598 -143.39990234 774.51464844 C-167.38738444 765.59912503 -190.43048801 754.01742491 -212.0625 740.375 C-212.74908691 739.94268066 -213.43567383 739.51036133 -214.14306641 739.06494141 C-229.13195055 729.53410976 -243.50505746 718.84199856 -257.0625 707.375 C-258.47789062 706.23611328 -258.47789062 706.23611328 -259.921875 705.07421875 C-268.57627819 698.01340638 -276.46831239 690.18562888 -284.375 682.3125 C-284.93462433 681.75805206 -285.49424866 681.20360413 -286.0708313 680.63235474 C-293.22038209 673.53493595 -299.78887368 666.26642033 -306.0625 658.375 C-306.99719458 657.27309978 -307.93856468 656.17677485 -308.890625 655.08984375 C-358.01712327 598.75284331 -387.90882893 524.06458078 -397.0625 450.375 C-397.14937073 449.70119293 -397.23624146 449.02738586 -397.32574463 448.3331604 C-399.27693355 432.84497877 -399.46205396 417.40736512 -399.4375 401.8125 C-399.43695618 400.51196686 -399.43641235 399.21143372 -399.43585205 397.87149048 C-399.39599566 377.10200696 -398.54871073 356.85747622 -395.0625 336.375 C-394.73306396 334.424729 -394.73306396 334.424729 -394.39697266 332.43505859 C-391.4070326 315.11687094 -387.21890248 298.16915624 -382.0625 281.375 C-381.78825195 280.47523438 -381.51400391 279.57546875 -381.23144531 278.6484375 C-365.85606722 228.83000811 -339.90217695 181.41936877 -305.56054688 142.14404297 C-304.41250033 140.78831525 -303.29416907 139.40737573 -302.18945312 138.01611328 C-296.49701447 130.86689721 -290.36049654 124.36348195 -283.87939453 117.93115234 C-282.18936758 116.25185572 -280.51032236 114.56211031 -278.83203125 112.87109375 C-272.21567394 106.24668418 -265.39798424 100.2024663 -258.0625 94.375 C-256.96056594 93.44034531 -255.86424221 92.49897258 -254.77734375 91.546875 C-245.97484008 83.87099275 -236.63614015 77.0549309 -227.0625 70.375 C-226.41522949 69.92237793 -225.76795898 69.46975586 -225.10107422 69.00341797 C-194.20150382 47.5388309 -159.81216208 30.96066719 -124.0625 19.375 C-123.18625977 19.0867334 -122.31001953 18.7984668 -121.40722656 18.50146484 C-101.54686196 12.0144999 -81.32491659 7.36348691 -60.6875 4.125 C-59.72803467 3.97393799 -58.76856934 3.82287598 -57.7800293 3.66723633 C-38.53451087 0.82252568 -19.43936497 -0.0326103 0 0 Z " fill="#005880" transform="translate(399.0625,-0.375)"/>
<path d="M0 0 C0.97324219 -0.00257813 1.94648438 -0.00515625 2.94921875 -0.0078125 C5.3125 0.125 5.3125 0.125 6.3125 1.125 C6.24819089 3.27350879 6.11114836 5.42005468 5.9375 7.5625 C5.84726562 8.73683594 5.75703125 9.91117188 5.6640625 11.12109375 C5.3125 14.125 5.3125 14.125 4.3125 16.125 C3.93686548 21.75951775 4.1179494 25.28164909 7.3125 30.125 C8.31090541 31.16777899 9.3347276 32.18648316 10.375 33.1875 C32.83781505 54.8497535 44.94799932 86.4318529 57.05032349 114.52026367 C64.22250126 131.14691905 71.57099356 147.43763405 82.3125 162.125 C82.7048584 162.66398926 83.0972168 163.20297852 83.50146484 163.75830078 C100.10473279 186.34414881 122.01064056 205.7440005 150.42578125 210.6640625 C185.74103835 214.85220354 215.21871382 200.81826658 242.44726562 179.41308594 C254.61907306 169.62427711 265.89762549 158.7698821 276.80151367 147.59960938 C279.36775462 144.98708698 281.9880145 142.52527219 284.78125 140.15625 C291.4798365 134.36184533 297.5866999 127.91641706 303.8125 121.625 C318.63375469 106.64753635 318.63375469 106.64753635 324.58544922 101.60253906 C327.70468467 98.93394803 330.64570134 96.07251431 333.625 93.25 C339.65250997 87.5993485 345.78091031 82.19096468 352.3125 77.125 C353.00939941 76.57730957 353.70629883 76.02961914 354.42431641 75.46533203 C366.16671708 66.27041866 378.10925871 58.08030532 391.3125 51.125 C391.97588379 50.77469727 392.63926758 50.42439453 393.32275391 50.06347656 C409.94777425 41.44372347 429.50831603 35.66458828 448.3125 36.125 C460.7066437 57.66016074 470.85489691 79.75914295 479.3125 103.125 C479.64233887 104.02927734 479.97217773 104.93355469 480.31201172 105.86523438 C488.98644762 129.89791096 494.481486 154.89786275 498.3125 180.125 C498.47766113 181.16350098 498.64282227 182.20200195 498.81298828 183.27197266 C507.54327803 240.4296401 501.20978363 301.09135545 484.3125 356.125 C484.03825195 357.02476562 483.76400391 357.92453125 483.48144531 358.8515625 C477.2079153 379.17869918 468.74631972 398.58588085 459.44140625 417.69140625 C458.14993604 420.34573589 456.94844381 422.98541114 455.796875 425.70703125 C443.65603522 453.66291233 423.58746964 479.60416631 403.3125 502.125 C402.50039063 503.03636719 401.68828125 503.94773437 400.8515625 504.88671875 C399.40869057 506.49919141 397.95982307 508.10632712 396.50390625 509.70703125 C394.89373724 511.4836705 393.2996543 513.27492256 391.71484375 515.07421875 C390.83957031 516.06035156 389.96429687 517.04648437 389.0625 518.0625 C388.27359375 518.95839844 387.4846875 519.85429688 386.671875 520.77734375 C384.34704168 523.09062988 382.13844275 524.49905239 379.3125 526.125 C377.5590934 527.67550173 377.5590934 527.67550173 376 529.375 C369.127665 536.4983792 361.32530925 542.62638699 353.66796875 548.875 C350.13854195 551.76564571 346.65641812 554.688085 343.24609375 557.71875 C298.17344964 597.35178247 234.00987143 621.30171087 175.3125 631.125 C175.95457126 624.06221618 177.74699613 617.51176132 179.625 610.6875 C183.8356391 594.71488361 187.48085633 578.95606348 187.3515625 562.36328125 C187.23544939 543.62306992 188.42953997 531.1414281 198.70361328 514.85986328 C201.52644599 510.06147603 203.59665258 504.96244234 205.6875 499.8125 C206.09750244 498.80509766 206.50750488 497.79769531 206.92993164 496.75976562 C218.04078042 469.03144516 225.15934387 440.82124533 217.3125 411.125 C216.89484375 409.30355469 216.89484375 409.30355469 216.46875 407.4453125 C213.4444783 394.90501345 208.42521251 382.91751884 201.85546875 371.8046875 C200.3125 369.125 200.3125 369.125 198.86328125 365.8203125 C197.00156865 362.13160455 195.497488 359.77841838 192.3125 357.125 C186.79191589 355.50749519 180.82539628 356.05578168 175.13476562 356.14550781 C120.86914574 355.75119016 71.80838716 325.01382592 34.74243164 287.86206055 C28.35470899 281.33458701 22.72944269 274.46379529 17.3125 267.125 C16.20261719 265.70767578 16.20261719 265.70767578 15.0703125 264.26171875 C-10.71927759 231.08400766 -29.36521834 190.64103462 -38.65893555 149.7644043 C-42.16228105 131.81659896 -42.16228105 131.81659896 -52.640625 117.79296875 C-57.62987394 115.17823273 -62.17213709 114.03039762 -67.80078125 113.87890625 C-68.79368164 113.84772705 -69.78658203 113.81654785 -70.80957031 113.78442383 C-71.86241211 113.75243896 -72.91525391 113.7204541 -74 113.6875 C-94.24021764 112.91053293 -112.80368108 109.44636635 -131.375 101.10546875 C-136.15689779 99.07800871 -138.41792339 99.12995149 -143.38476562 101.07226562 C-144.08279297 101.35779297 -144.78082031 101.64332031 -145.5 101.9375 C-152.72196911 104.81950645 -159.41122234 107.4092138 -167.3125 107.4375 C-168.39789063 107.45425781 -169.48328125 107.47101563 -170.6015625 107.48828125 C-174.82269809 106.99136276 -177.38139547 105.29599026 -180.5 102.5 C-182.33916953 98.82166095 -181.92044152 95.16265305 -181.6875 91.125 C-182.409375 91.063125 -183.13125 91.00125 -183.875 90.9375 C-187.5872565 89.86507034 -189.19971068 88.02742087 -191.6875 85.125 C-194.52794828 76.60365515 -193.17226416 68.78574346 -189.25 60.9375 C-185.65148394 54.10040056 -181.28066686 48.47888699 -175.6875 43.125 C-175.09839844 42.50496094 -174.50929688 41.88492188 -173.90234375 41.24609375 C-169.83236505 37.24767512 -165.20893291 34.55616175 -160.1875 31.9375 C-159.58993896 31.6163623 -158.99237793 31.29522461 -158.37670898 30.96435547 C-145.21386327 24.44609406 -131.52503962 23.56866298 -117.125 23.625 C-102.05455233 23.68382661 -89.57521635 21.76284314 -75.5 16 C-61.27626591 10.46433239 -47.15772738 10.17118648 -32.1875 12.0625 C-27.52933625 12.47877134 -27.52933625 12.47877134 -23.3203125 10.7734375 C-21.29258428 8.96892056 -21.29258428 8.96892056 -19.4921875 6.98046875 C-14.27609183 1.61759982 -7.23396661 -0.01931633 0 0 Z " fill="#FEFEFE" transform="translate(298.6875,162.875)"/>
<path d="M0 0 C0.89341095 0.10860855 1.7868219 0.2172171 2.70730591 0.32911682 C5.53728885 0.67399001 8.36631272 1.02606725 11.1953125 1.37890625 C14.0173131 1.72687389 16.83949626 2.07326687 19.66189575 2.41798401 C21.40864348 2.63174217 23.15514648 2.84751478 24.90133667 3.06578064 C27.37302376 3.37064016 29.84574586 3.66089685 32.3203125 3.94140625 C33.16322845 4.03727524 34.00614441 4.13314423 34.87460327 4.23191833 C42.54353151 5.02100292 50.17021772 5.10277522 57.875 5.109375 C59.26628653 5.11260223 60.65757275 5.1159673 62.04885864 5.11946106 C64.95510643 5.12541129 67.86132469 5.1273055 70.76757812 5.12670898 C73.70156069 5.12662816 76.6353857 5.13350713 79.56933594 5.1472168 C96.25043324 5.22414657 112.7384401 5.0250603 129.3203125 2.94140625 C128.72786673 7.09420049 127.3371437 10.03033524 125.21484375 13.6328125 C124.24442139 15.28289307 124.24442139 15.28289307 123.25439453 16.96630859 C122.5480632 18.14602475 121.84084919 19.32521282 121.1328125 20.50390625 C120.77572205 21.10277649 120.41863159 21.70164673 120.05072021 22.31866455 C113.33071624 33.57140061 106.10684786 44.39446 98.3203125 54.94140625 C97.86462891 55.56144531 97.40894531 56.18148437 96.93945312 56.8203125 C88.48429669 68.2558796 79.11703919 78.97850094 69.546875 89.48828125 C67.92304136 91.27734708 66.31587315 93.08158065 64.71875 94.89453125 C63.84476563 95.879375 62.97078125 96.86421875 62.0703125 97.87890625 C61.28140625 98.77480469 60.4925 99.67070313 59.6796875 100.59375 C57.35485418 102.90703613 55.14625525 104.31545864 52.3203125 105.94140625 C50.5669059 107.49190798 50.5669059 107.49190798 49.0078125 109.19140625 C42.1354775 116.31478545 34.33312175 122.44279324 26.67578125 128.69140625 C23.14635445 131.58205196 19.66423062 134.50449125 16.25390625 137.53515625 C-18.86539351 168.41606806 -64.71779292 186.89841491 -108.6796875 200.94140625 C-110.18651433 197.92775259 -108.98222342 196.18445041 -107.94140625 193.02734375 C-107.3371582 191.19139648 -107.3371582 191.19139648 -106.72070312 189.31835938 C-106.27054317 187.98403318 -105.81934591 186.65005656 -105.3671875 185.31640625 C-105.14071533 184.64246826 -104.91424316 183.96853027 -104.6809082 183.27416992 C-100.28557152 170.2302938 -95.24076139 157.53419739 -89.6796875 144.94140625 C-89.2671875 143.9982959 -88.8546875 143.05518555 -88.4296875 142.08349609 C-84.25117062 132.55941564 -79.89962373 123.20383059 -74.9296875 114.06640625 C-61.15875829 88.58056681 -50.22728501 60.6686478 -40.62890625 33.3828125 C-40.37953812 32.67398422 -40.13016998 31.96515594 -39.87324524 31.23484802 C-38.67535091 27.8170945 -37.49256078 24.394972 -36.33129883 20.96459961 C-35.69937622 19.1278064 -35.69937622 19.1278064 -35.0546875 17.25390625 C-34.69117188 16.17753906 -34.32765625 15.10117187 -33.953125 13.9921875 C-31.95201782 9.19812398 -29.48222655 5.04869747 -25.1171875 2.12890625 C-24.53839844 1.73058594 -23.95960938 1.33226562 -23.36328125 0.921875 C-16.57651479 -3.03051104 -7.41577505 -0.94037751 0 0 Z " fill="#013B5C" transform="translate(625.6796875,583.05859375)"/>
<path d="M0 0 C6.68860519 0.12565299 13.3443412 0.82837048 19.9375 1.9375 C29.87843274 3.58605867 39.96226869 4.19986302 50 5 C50.13051758 5.92635254 50.26103516 6.85270508 50.39550781 7.80712891 C50.89471185 11.31598249 51.40279087 14.82333048 51.91650391 18.33007812 C52.13511999 19.83446408 52.35040959 21.33933803 52.56201172 22.84472656 C54.56013712 37.03046995 58.24833115 50.2906611 63 63.8125 C63.495 65.25012695 63.495 65.25012695 64 66.71679688 C65.84959488 72.0163197 67.86560049 77.05156532 70.4609375 82.03393555 C71 84 71 84 70.20556641 86.13476562 C68.79703265 88.31402806 67.230519 89.99763979 65.375 91.8125 C64.42753906 92.75029297 64.42753906 92.75029297 63.4609375 93.70703125 C57.27208289 99.47347198 50.78721259 104.8855378 44.25 110.25 C43.50878906 110.86101562 42.76757812 111.47203125 42.00390625 112.1015625 C37.92869958 115.45245057 37.92869958 115.45245057 36 117 C35.32291992 117.55913086 34.64583984 118.11826172 33.94824219 118.69433594 C32 120 32 120 29 120 C27.39368064 117.12619779 25.79033785 114.25074523 24.1875 111.375 C23.73568359 110.56675781 23.28386719 109.75851562 22.81835938 108.92578125 C21.93122225 107.3328197 21.0493991 105.73688633 20.1730957 104.13793945 C19.25247159 102.46012356 18.3132817 100.79249295 17.3671875 99.12890625 C15.31194111 94.42532809 14.19202622 89.53043881 12.9375 84.5625 C10.23963693 74.22525337 7.22778704 64.03657974 3.9375 53.875 C3.72377747 53.21283478 3.51005493 52.55066956 3.28985596 51.86843872 C0.46456111 43.1432319 -2.5450004 34.53574029 -6.13671875 26.09375 C-7.87655248 19.85868975 -5.5426184 14.03108519 -3.5 8.125 C-3.27441406 7.44953125 -3.04882812 6.7740625 -2.81640625 6.078125 C-1.1409337 1.1409337 -1.1409337 1.1409337 0 0 Z " fill="#FDFDFE" transform="translate(610,600)"/>
<path d="M0 0 C5.90636121 2.96886121 5.90636121 2.96886121 8.125 5.1875 C8.125 6.1775 8.125 7.1675 8.125 8.1875 C7.50625 8.22875 6.8875 8.27 6.25 8.3125 C5.198125 8.745625 5.198125 8.745625 4.125 9.1875 C3.83625 10.095 3.5475 11.0025 3.25 11.9375 C1.62650632 16.62759284 -1.40763901 18.95381951 -5.875 21.1875 C-11.97567939 21.78560582 -15.01412777 20.64619755 -19.875 17.1875 C-22.13209039 14.20231593 -22.875 12.93831172 -22.875 9.1875 C-24.525 8.8575 -26.175 8.5275 -27.875 8.1875 C-26.48302671 4.80493279 -25.0724504 3.35061318 -21.9375 1.5 C-21.24785156 1.08363281 -20.55820313 0.66726562 -19.84765625 0.23828125 C-13.54870662 -3.11700083 -6.44107682 -2.79397703 0 0 Z " fill="#066A94" transform="translate(246.875,198.8125)"/>
<path d="M0 0 C0.66 0.33 1.32 0.66 2 1 C-10.21 13.21 -22.42 25.42 -35 38 C-35.66 37.67 -36.32 37.34 -37 37 C-30.85974857 30.0447613 -24.51235927 23.35717629 -17.9375 16.8125 C-17.09123047 15.96236328 -16.24496094 15.11222656 -15.37304688 14.23632812 C-10.41343978 9.28436885 -5.34855094 4.52999983 0 0 Z " fill="#519DBD" transform="translate(138,96)"/>
</svg>
